<svg xmlns="http://www.w3.org/2000/svg" xmlns:xlink="http://www.w3.org/1999/xlink" id="Layer_1" x="0px" y="0px" viewBox="0 0 162.6 248.1" style="enable-background:new 0 0 162.6 248.1;" xml:space="preserve">
<style type="text/css">
	.st0{fill:#312783;}
	.st1{fill:#E61B45;}
	.st2{fill:none;stroke:#E61B45;stroke-width:3;stroke-miterlimit:10;}
	.st3{fill:none;stroke:#312783;stroke-width:3;stroke-miterlimit:10;}
</style>
<g>
	<path class="st0" d="M159.6,3l-1.3,188.1l0,0l0,0c0,0.2,0,17.6-11.4,29.1c-6.8,6.9-16.4,10.4-28.6,10.4h-0.1l-0.1,0   c-0.4,0-9.6,0.4-19,2.5c-8.6,1.9-14.6,4.6-17.9,8c-3.3-3.4-9.3-6.1-17.9-8c-9.4-2-18.6-2.5-19-2.5l-0.1,0h-0.1   c-12.1,0-21.7-3.5-28.6-10.4C4.3,208.8,4.3,191.4,4.3,191.2l0,0l0,0L3,3h77.8h1H159.6 M162.6,0H81.8h-1H0l1.3,191.2   c0,0-0.5,42.5,43,42.5c0,0,37,1.6,37,14.5h0.1c0-12.9,37-14.5,37-14.5c43.5,0,43-42.5,43-42.5L162.6,0L162.6,0z"></path>
</g>
<g>
	<g id="XMLID_2_">
		<g>
			<path class="st1" d="M82.8,99.5c-2.1-3.6-8.2,1-8.2,1c-2.8,3.7-5.3-1.7-5.3-1.7l2.1-0.6l0.4-1.5c0,0,2,0.7,1.9,0.5     c-0.2-0.2,0-1.9,0-1.9s0.5,0.7,1.4,1.6c0.9,0.9,2.3-0.1,2.3-0.1c6.3-2.3,7.2,1.6,7.2,1.6c1.6,1.8,4.3,1.9,4.3,1.9     c3.4,2.5-1.9,4.3-1.9,4.3c-1.8-0.1-3.4,0.9-3.4,0.9c-4.1,1.3-4.4-2.1-4.4-2.1C78.5,101.1,82.8,99.5,82.8,99.5z"></path>
			<path class="st0" d="M70.4,65.2c-0.3,1-3.1,1-4.2,1s-1-1,0-1.1c1-0.1,0.7-0.5,0.8-1.7c0.1-1.3,1-2.5,1.9-3.6     c0.8-1.1,2.8,0.3,3.8,0.6c1,0.4,3.1-0.6,4.2-1.3c1-0.7,5.9,0.3,6.6,1c0.8,0.7,2.1,2.5,3.3,2.9c1.2,0.5,3.2,2.7,3.6,3.9     c0.4,1.2-1.3,1.9-1.3,1.9h-5.9h-5.8c-1.8,0-1.6-1-1.8-1.7s1.3-1.2,2.7-1.2c1.4-0.1,1.1-0.6,1.4-1.6c0.3-1,1.5-0.9,2.1-2.3     s-2.5-0.3-3.2-0.3c-0.7,0-3.1,0-3.9,0.8c-0.8,0.9-1.8,0.7-2.9,0.3C70.6,62.6,70.7,64.2,70.4,65.2z"></path>
		</g>
		<g>
			<path class="st2" d="M107.9,106.5c0,0-4.6,6.3-5.3,11.5c0,0-0.8,5.7-3.9,7c-3.1,1.3-4.2,3.4,0,3c4.2-0.4,6.9-1.8,10.4-3.5     c3.4-1.7,13.8-3,16.4-2.7c2.6,0.3,9.5-3.4,6.3-6.6c-3.1-3.2-4.7-4.9-10.6-4.4c-4.8,0.4-9.4,0-13.1-4.4c-0.9-1.1-1.8-2.5-2.7-4.2     c-1.2-2.4-2.8-5.2-4.7-7.8C96,87.8,89.1,81.6,80.8,80.5c0,0-24-6.5-35.2,21.2c0,0-1.6,4.2-2.2,10.2c-1.2,11.3,1,29.1,23.3,38.5     c0,0,4.1,1.3,12.5,1.4c7.3,0.1,14.5,2.1,20.6,6.2c5.3,3.6,10.6,9.1,13.8,17.5c1.5,3.9,2.5,8.5,2.8,13.9c0,0-0.4,20.1-21.1,28.6     c0,0-13.1,7.4-30.2,2.9"></path>
			<path class="st3" d="M63.9,207.6c38.9,6,47.8-18.4,49.7-32.1c0.7-5.1,0.5-8.7,0.5-8.7c1.4-36.5-40.7-39.9-40.7-39.9     c-14.8-2.1-24.2-8.2-30.1-15c-9.7-11.2-10.2-24.2-10.2-24.2c2.5-48.2,39.7-45.4,39.7-45.4c24.1,0.4,35.7,25.2,35.7,25.2     c0.2,0.6,0.5,1.2,0.8,1.8c5.1,10.5,18.3,8.4,18.3,8.4c14.8,0.3,12.1,9,12.1,9c0.5,8.8-35.2,7.1-38.1,6.9c-0.1,0-0.2,0-0.2,0     s7.1-5,8-24.3"></path>
		</g>
	</g>
	<g>
		<path class="st1" d="M46.1,192.3c-0.7-2.8-1.2-5.7-1.3-8.5c0,0,0-0.1,0-0.1c0-1.3,0.6-13,3.5-17.1c0.5-0.7,0.7-1.4,0.5-1.8    c-0.1-0.3-0.5-0.5-0.8-0.5c-0.4,0-0.8,0.3-1.1,0.8c-1.8,3.1-3.2,7.9-2.4,10.5c0,0.1,0,0.1,0.1,0.2c0.3,0.8-0.1,1.6-0.9,1.9    c-0.8,0.3-1.6-0.1-1.9-0.9c0-0.1,0-0.1-0.1-0.2c-0.6-1.7-1.5-3.4-2.1-4.2c0,0.1-0.1,0.3-0.2,0.4l-2.8-0.9c0.6-1.8,1.6-2.8,2.8-2.8    c0,0,0,0,0,0c0.8,0,1.6,0.5,2.3,1.2c0.6-2.6,1.7-5,2.6-6.7c0.9-1.5,2.3-2.3,3.8-2.2c1.5,0.1,2.8,0.9,3.4,2.2    c0.7,1.5,0.5,3.3-0.7,4.9c-2.1,2.9-2.8,12-3,15.4c0.2,2.6,0.6,5.2,1.2,7.8L46.1,192.3z"></path>
	</g>
	<g>
		<path class="st1" d="M66,222.7c-6.1,0-13.2-2.3-19.7-6.5c-2.3-1.5-3.3-3-2.9-4.6c0.1-0.6,0.5-1.2,1.1-1.7c-0.7-0.2-1.4-0.5-2-0.9    c-3.2-1.9-5.5-5.3-6.6-10.2l2.9-0.7c1,4.1,2.7,6.8,5.2,8.3c1.5,0.9,3.4,1.3,5.5,1.2c1.8-0.5,3.7-0.8,4.9-0.9l1.2-0.8    c5.8,8.8,12.7,14,12.8,14.1c0.5,0.4,0.7,1,0.5,1.6c-0.2,0.6-0.7,1-1.3,1.1C67,222.7,66.5,222.7,66,222.7z M46.3,212.3    c0,0,0.2,0.5,1.6,1.4c6.2,3.9,11.6,5.4,15.3,5.8c-2.3-2.2-5.5-5.5-8.6-9.8c-1.6,0.4-3.1,0.7-4.5,0.8    C47.9,211.1,46.4,211.8,46.3,212.3L46.3,212.3z"></path>
	</g>
	<g>
		<path class="st0" d="M67.1,209.6c0,0-0.1,0-0.1,0c-0.2,0-5.9-0.4-14-2.8l0,0c-8.2-2.4-15.8-5.8-22.5-10.3c-0.1,0-0.1-0.1-0.2-0.1    c-0.6-0.5-5.8-5.4-4.9-9.6c0.3-1.3,1.1-2.4,2.4-3.2c-2.4-2.2-6.2-6.2-6.7-10c-0.2-1.6,0.2-2.9,1.1-4.1c0.1-0.1,0.1-0.1,0.2-0.2    c0.7-0.6,2.3-1.6,4.2-1.4c-1.1-2.8-1.8-6.2-1.1-9.3c0.6-2.9,2.4-5.1,5.2-6.7c0.2-0.1,2.2-1.2,3.9-0.1c1.4,0.9,2,2.8,1.6,5.8    c-0.6,5.7,5.7,36.7,31.4,49.3c0.6,0.3,1,1,0.8,1.7C68.3,209.1,67.7,209.6,67.1,209.6z M53.8,203.9c2.1,0.6,4,1.1,5.6,1.4    c-21.3-14.8-26.8-41.8-26.2-48.2c0.3-2.5-0.3-3-0.3-3c-0.1-0.1-0.6,0.1-0.8,0.2c-2.1,1.2-3.3,2.7-3.7,4.8c-0.9,4,1.3,8.7,2.8,11.4    c0.5,0.7,1,1.5,1.5,2.4c0.3,0.7,0.1,1.6-0.6,2c-0.7,0.4-1.5,0.2-2-0.4c-0.1-0.1-0.7-1-1.4-2.3c-0.7-0.8-1.3-1.3-2-1.4    c-1-0.2-1.9,0.4-2.2,0.6c-0.4,0.5-0.5,1.1-0.4,1.8c0.4,3.4,5.5,8.1,7.5,9.6c0.4,0.3,0.7,0.9,0.5,1.5c-0.1,0.6-0.5,1-1.1,1.2    c-1.6,0.5-2.5,1.1-2.7,2c-0.5,1.9,2.4,5.3,3.9,6.7C38.7,198.3,45.9,201.6,53.8,203.9L53.8,203.9z"></path>
	</g>
</g>
<g>
	<path class="st0" d="M34.9,17.4c0-0.9-0.2-0.9-1.4-0.9h-1.2V16h1.2c1.2,0,2.5-0.1,3.7-0.2v13h2.4v0.5h-7.2v-0.5h2.5V17.4z"></path>
	<path class="st0" d="M42.6,29.1c3.1-0.5,5.2-2.5,5.6-5.6c-0.7,0.6-1.6,1-2.5,1c-2.1,0-3.9-1.7-3.9-4.3c0-2.4,2.1-4.5,4.5-4.5   c3,0,4.6,2.9,4.6,5.6c0,4.4-3.9,8-8.2,8.2V29.1z M46.1,16.1c-0.9,0-1.9,0.2-1.9,4.2c0,1.3-0.1,3.7,1.8,3.7c0.6,0,2.1-0.8,2.1-1.4   c0.1-0.8,0.1-1.5,0.1-2.2C48.3,16.4,47.3,16.1,46.1,16.1z"></path>
	<path class="st0" d="M60.5,16.2c-3.1,0.5-5.2,2.5-5.6,5.6c0.7-0.6,1.6-1,2.5-1c2.4,0,3.9,2.1,3.9,4.3c0,2.6-2.1,4.4-4.6,4.4   c-3,0-4.5-3-4.5-5.6c0-4.4,3.9-8,8.2-8.3V16.2z M57.1,21.4c-0.8,0-1.7,0.7-2.1,1.3c-0.2,0.3-0.1,2.6-0.1,3c0,2.4,0.5,3.5,2.1,3.5   c1,0,2-0.3,2-4C58.9,23.8,59,21.4,57.1,21.4z"></path>
	<path class="st0" d="M71,16.2c-3.1,0.5-5.2,2.5-5.6,5.6c0.7-0.6,1.6-1,2.5-1c2.4,0,3.9,2.1,3.9,4.3c0,2.6-2.1,4.4-4.6,4.4   c-3,0-4.5-3-4.5-5.6c0-4.4,3.9-8,8.2-8.3V16.2z M67.6,21.4c-0.8,0-1.7,0.7-2.1,1.3c-0.2,0.3-0.1,2.6-0.1,3c0,2.4,0.5,3.5,2.1,3.5   c1,0,2-0.3,2-4C69.4,23.8,69.5,21.4,67.6,21.4z"></path>
	<path class="st0" d="M78.5,25.6v-1.1h5.6v1.1H78.5z"></path>
	<path class="st0" d="M99,25.4l-0.1,3.9h-8.3v-1.4c1.4-1.4,5.2-4.5,5.7-6.2c0.2-0.6,0.3-1.2,0.3-2.1c0-1.5-0.8-3.1-2.5-3.1   c-1.1,0-2.4,0.8-2.4,2c0,0.1,0.1,0.4,0.5,0.3c0.1,0,0.3-0.1,0.4-0.1c0.7,0,1.2,0.3,1.2,1c0,0.8-0.5,1.2-1.3,1.2   c-0.9,0-1.4-0.9-1.4-1.7c0-2.2,2-3.5,4-3.5c2.1,0,4.1,1.3,4.1,3.5c0,1.2-0.4,2.2-2.1,3.7l-5,4.4h5.2c1,0,1.3-0.1,1.3-2H99z"></path>
	<path class="st0" d="M105.7,15.7c2.5,0,4.6,3.5,4.6,6.8c0,4.7-2.6,7-4.6,7s-4.5-2.3-4.5-7C101.2,19.3,103.2,15.7,105.7,15.7z    M103.7,24.8c0,1.5-0.1,4.3,2,4.3s2-2.8,2-4.3v-4.6c0-3.4-1.1-4-2-4s-2,0.6-2,4V24.8z"></path>
	<path class="st0" d="M115.4,17.4c0-0.9-0.2-0.9-1.4-0.9h-1.2V16h1.2c1.2,0,2.5-0.1,3.7-0.2v13h2.4v0.5h-7.2v-0.5h2.5V17.4z"></path>
	<path class="st0" d="M130.5,16.2c-3.1,0.5-5.2,2.5-5.6,5.6c0.7-0.6,1.6-1,2.5-1c2.4,0,3.9,2.1,3.9,4.3c0,2.6-2.1,4.4-4.6,4.4   c-3,0-4.5-3-4.5-5.6c0-4.4,3.9-8,8.2-8.3V16.2z M127.1,21.4c-0.8,0-1.7,0.7-2.1,1.3c-0.2,0.3-0.1,2.6-0.1,3c0,2.4,0.5,3.5,2.1,3.5   c1,0,2-0.3,2-4C128.9,23.8,129,21.4,127.1,21.4z"></path>
</g>
</svg>